<?xml version="1.0" standalone="no"?><!DOCTYPE svg PUBLIC "-//W3C//DTD SVG 1.1//EN" "http://www.w3.org/Graphics/SVG/1.1/DTD/svg11.dtd"><svg t="1563032944349" class="icon" viewBox="0 0 1024 1024" version="1.1" xmlns="http://www.w3.org/2000/svg" p-id="5733" xmlns:xlink="http://www.w3.org/1999/xlink" width="200" height="200"><defs><style type="text/css"></style></defs><path d="M512.737 968.403c-246.99 0-447.905-200.954-447.905-447.912 0-246.943 200.914-447.898 447.905-447.898 246.947 0 447.904 200.954 447.904 447.898 0 246.959-200.957 447.912-447.904 447.912z m0-878.57c-237.488 0-430.666 193.172-430.666 430.658S275.25 951.15 512.737 951.15c237.445 0 430.664-193.172 430.664-430.659S750.181 89.833 512.737 89.833zM615.26 454.626c7.01 0 13.962 0.534 20.772 1.311-18.72-87.122-111.827-151.754-217.996-151.754-118.794 0-216.116 80.98-216.116 183.832 0 59.269 32.413 108.03 86.48 145.877l-21.598 64.99 75.539-37.913c26.999 5.343 48.654 10.849 75.696 10.849 6.753 0 13.478-0.314 20.117-0.855-4.188-14.46-6.64-29.57-6.64-45.256-0.001-94.438 81.05-171.08 183.746-171.08zM499.1 396.056c16.213 0 27.028 10.671 27.028 26.95 0 16.205-10.813 27.054-27.028 27.054-16.227 0-32.484-10.849-32.484-27.055 0.001-16.278 16.257-26.949 32.484-26.949zM347.825 450.06c-16.213 0-32.599-10.849-32.599-27.055 0-16.277 16.385-26.949 32.599-26.949 16.184 0 26.913 10.671 26.913 26.95 0 16.205-10.729 27.054-26.913 27.054z m464.66 173.04c0-86.424-86.425-156.84-183.505-156.84-102.85 0-183.875 70.416-183.875 156.84 0 86.574 81.024 156.798 183.875 156.798 21.513 0 43.17-5.385 64.797-10.813l59.312 32.484-16.3-54.011c43.426-32.542 75.696-75.74 75.696-124.458zM569.34 596.044c-10.77 0-21.627-10.714-21.627-21.606 0-10.793 10.857-21.61 21.627-21.61 16.342 0 27.042 10.818 27.042 21.61 0 10.893-10.7 21.606-27.042 21.606z m118.865 0c-10.685 0-21.457-10.714-21.457-21.606 0-10.793 10.77-21.61 21.457-21.61 16.228 0 27.084 10.818 27.084 21.61 0.001 10.893-10.856 21.606-27.084 21.606z" fill="#8A8A8A" p-id="5734"></path></svg>